<svg width="40" height="40" viewBox="0 0 40 40" xmlns="http://www.w3.org/2000/svg">
  <!-- Background circle -->
  <circle cx="20" cy="20" r="20" fill="#f5f5f0"/>
  
  <!-- Face -->
  <ellipse cx="20" cy="18" rx="8" ry="9" fill="#d4a574"/>
  
  <!-- Hair -->
  <path d="M12 12 C12 8, 16 6, 20 6 C24 6, 28 8, 28 12 C28 10, 26 8, 24 9 C22 7, 18 7, 16 9 C14 8, 12 10, 12 12 Z" fill="#8b4513"/>
  <path d="M11 13 C11 11, 13 10, 15 11 C13 12, 11 14, 11 16 Z" fill="#654321"/>
  <path d="M29 13 C29 11, 27 10, 25 11 C27 12, 29 14, 29 16 Z" fill="#654321"/>
  
  <!-- Eyes -->
  <ellipse cx="17" cy="16" rx="1.5" ry="2" fill="white"/>
  <ellipse cx="23" cy="16" rx="1.5" ry="2" fill="white"/>
  <circle cx="17" cy="16" r="1" fill="black"/>
  <circle cx="23" cy="16" r="1" fill="black"/>
  
  <!-- Eyebrows -->
  <path d="M15 14 Q17 13 19 14" stroke="#654321" stroke-width="1.5" fill="none"/>
  <path d="M21 14 Q23 13 25 14" stroke="#654321" stroke-width="1.5" fill="none"/>
  
  <!-- Nose -->
  <ellipse cx="20" cy="18.5" rx="0.8" ry="1.2" fill="#c4956a"/>
  
  <!-- Mouth/Smile -->
  <path d="M17 21 Q20 24 23 21" stroke="#654321" stroke-width="2" fill="none"/>
  <rect x="18" y="22" width="4" height="1.5" fill="white" rx="0.5"/>
  
  <!-- Beard -->
  <path d="M15 22 Q20 26 25 22 Q24 25 20 26 Q16 25 15 22 Z" fill="#8b4513"/>
  
  <!-- Shirt -->
  <path d="M12 32 Q20 30 28 32 L28 40 L12 40 Z" fill="#e8e8e8"/>
  <path d="M12 32 Q20 30 28 32" stroke="#d0d0d0" stroke-width="1" fill="none"/>
</svg>